<svg xmlns:inkscape="http://www.inkscape.org/namespaces/inkscape" xmlns:sodipodi="http://sodipodi.sourceforge.net/DTD/sodipodi-0.dtd" xmlns="http://www.w3.org/2000/svg" xmlns:svg="http://www.w3.org/2000/svg" width="59.776402" height="45.302502" viewBox="0 0 59.776402 45.302502" fill="none" version="1.1" id="svg1345" sodipodi:docname="app-logo.svg" inkscape:version="1.1.2 (b8e25be833, 2022-02-05)">
  <sodipodi:namedview id="namedview1347" pagecolor="#ffffff" bordercolor="#666666" borderopacity="1.0" inkscape:pageshadow="2" inkscape:pageopacity="0.0" inkscape:pagecheckerboard="0" showgrid="false" fit-margin-top="0" fit-margin-left="0" fit-margin-right="0" fit-margin-bottom="0" inkscape:zoom="5.5046729" inkscape:cx="55.40747" inkscape:cy="22.526316" inkscape:window-width="1920" inkscape:window-height="1009" inkscape:window-x="-8" inkscape:window-y="-8" inkscape:window-maximized="1" inkscape:current-layer="svg1345"/>
  <g clip-path="url(#clip0_485_26124)" id="g1338" transform="translate(-0.427734,-0.535156)">
    <path d="m 36.336,13.5899 c -1.7658,-0.0868 -4.1513,-0.1202 -8.3025,-0.1202 -4.1512,0 -6.55,0.0334 -8.3025,0.1202 -1.7524,0.0868 -3.2983,0.5944 -4.4244,1.6094 -1.226,1.0952 -1.9324,2.6845 -1.959,4.5142 -0.0267,1.8364 -0.04,2.9783 -0.04,5.9433 0,2.965 0.0067,4.1336 0.04,5.9433 0.0266,1.8097 0.733,3.419 1.959,4.5142 1.1261,1.0084 2.672,1.5159 4.4311,1.6094 1.7591,0.0935 4.1512,0.1736 8.3025,0.1736 4.1512,0 6.5366,-0.0801 8.3024,-0.1736 1.7591,-0.0935 3.2984,-0.5944 4.4311,-1.6094 1.2261,-1.0952 1.9324,-2.7045 1.959,-4.5142 0.0267,-1.8097 0.04,-2.9717 0.04,-5.9366 0,-2.965 -0.0067,-4.1069 -0.04,-5.9433 -0.0333,-1.8364 -0.7329,-3.4191 -1.959,-4.5142 -1.1261,-1.0084 -2.672,-1.5226 -4.4244,-1.6094 z" fill="#ffffff" id="path1306"/>
    <path d="m 26.794,45.8378 c 0.4065,0 0.8129,0 1.2327,0 0.4198,0 0.8196,0 1.2261,0 3.5582,-5.349 9.6951,-5.783 16.6849,-5.783 h 5.184 c 0.0133,-3.3724 0.02,-8.1136 0.02,-13.89 0,-11.1453 -0.02,-18.46422 -0.0933,-19.41915 C 50.9751,5.79072 50.7086,4.99605 50.1289,4.42844 49.5358,3.85414 48.6896,3.5937 47.6834,3.52025 46.6906,3.44679 39.3477,3.42676 28.0201,3.42676 16.6925,3.42676 9.36284,3.44011 8.35669,3.52025 7.35053,3.5937 6.50429,3.85414 5.91126,4.42844 5.32489,4.99605 5.06502,5.79072 4.99172,6.74565 4.91843,7.6939 4.89844,15.0195 4.89844,26.1648 c 0,5.7831 0,10.5243 0.01999,13.89 h 5.18407 c 6.9898,0 13.1267,0.434 16.6849,5.783 z M 13.3342,19.7074 c 0.0266,-1.8298 0.7329,-3.4191 1.959,-4.5143 1.1261,-1.0083 2.6653,-1.5225 4.4244,-1.6027 1.7591,-0.0801 4.1512,-0.1202 8.3025,-0.1202 4.1512,0 6.5367,0.0334 8.3024,0.1202 1.7591,0.0869 3.2984,0.5944 4.4245,1.6027 1.226,1.0952 1.9323,2.6778 1.959,4.5143 0.0266,1.8364 0.0399,2.9649 0.0399,5.9366 0,2.9716 -0.0066,4.1269 -0.0399,5.9366 -0.0267,1.803 -0.733,3.4124 -1.959,4.5075 -1.1261,1.0084 -2.672,1.5159 -4.4311,1.6027 -1.7658,0.0935 -4.1513,0.1736 -8.3025,0.1736 -4.1512,0 -6.55,-0.0801 -8.3025,-0.1736 -1.7591,-0.0935 -3.305,-0.5943 -4.4311,-1.6027 -1.226,-1.0951 -1.9323,-2.7045 -1.959,-4.5075 -0.0266,-1.803 -0.0399,-2.9717 -0.0399,-5.9366 0,-2.965 0.0066,-4.1002 0.0399,-5.9366 z" fill="#e76a10" id="path1308"/>
    <path d="m 34.1503,18.6055 h -1.286 v 9.162 h 1.286 c 1.0861,0 1.4526,-0.7813 1.4526,-1.6294 v -5.8966 c 0,-0.8547 -0.3665,-1.6294 -1.4526,-1.6294 z" fill="#000000" id="path1310"/>
    <path d="m 25.1278,32.2686 c 0.1199,1.5158 0.8928,2.8047 2.8585,2.8047 1.9657,0 2.7453,-1.2956 2.8586,-2.8047 h -5.7238 z" fill="#000000" id="path1312"/>
    <path d="m 23.2361,26.2718 c 0,0.8214 -0.3532,1.5693 -1.3993,1.5693 -1.0461,0 -1.3993,-0.7479 -1.3993,-1.5693 v -7.6595 h 2.7919 v 7.6595 z" fill="#000000" id="path1314"/>
    <path d="M 12.3417,41.9248 H 1.34061 c -0.499751,0 -0.912876,0.4007 -0.912876,0.8948 v 2.1236 c 0,0.4942 0.406461,0.8948 0.912876,0.8948 H 23.8559 C 21.2505,43.3338 17.4991,41.9248 12.3417,41.9248 Z" fill="#e76a10" id="path1316"/>
    <path d="m 43.652,41.9248 h 11.0011 c 0.4998,0 0.9129,0.4007 0.9129,0.8948 v 2.1236 c 0,0.4942 -0.4064,0.8948 -0.9129,0.8948 H 32.1445 c 2.6054,-2.5042 6.3568,-3.9132 11.5142,-3.9132 z" fill="#e76a10" id="path1318"/>
    <path d="m 57.4521,13.8106 c -0.1666,0.0334 -0.3265,-0.0667 -0.3798,-0.227 -0.3532,-1.1753 -1.4926,-1.9499 -2.7386,-1.8498 -0.1666,0.0134 -0.3199,-0.1001 -0.3532,-0.2671 -0.0333,-0.1936 0.1066,-0.374 0.3065,-0.3873 1.5592,-0.1202 2.9852,0.8481 3.4249,2.3172 0.0533,0.187 -0.0666,0.3806 -0.2598,0.414 z" fill="#040000" stroke="#040000" stroke-width="0.5" stroke-miterlimit="10" id="path1320"/>
    <path d="M 59.7648,12.1549 C 59.5915,12.1883 59.4249,12.0814 59.385,11.9145 58.8919,10.038 57.0728,8.80263 55.1071,9.01632 54.9339,9.03635 54.774,8.92283 54.7473,8.7492 54.714,8.56222 54.8472,8.38192 55.0405,8.36189 c 2.2922,-0.25376 4.4177,1.18866 4.9974,3.38571 0.0467,0.1869 -0.0732,0.3672 -0.2665,0.4073 z" fill="#040000" stroke="#040000" stroke-width="0.5" stroke-miterlimit="10" id="path1322"/>
    <path d="m 55.1268,15.474 c -0.1532,0.0267 -0.3065,-0.0534 -0.3664,-0.2003 -0.1999,-0.4875 -0.673,-0.8081 -1.2061,-0.8147 -0.1599,0 -0.2932,-0.1136 -0.3198,-0.2672 -0.04,-0.207 0.1266,-0.3939 0.3331,-0.3939 0.8063,0.0066 1.5259,0.4941 1.8191,1.2287 0.08,0.1936 -0.0466,0.4073 -0.2532,0.4407 z" fill="#040000" stroke="#040000" stroke-width="0.5" stroke-miterlimit="10" id="path1324"/>
    <path d="m 7.43702,21.2165 v -2.9049 c 0,-2.1102 0.54639,-4.1603 1.62585,-6.0835 1.03943,-1.8631 2.53203,-3.53261 4.43113,-4.96835 1.899,-1.43574 4.1112,-2.56429 6.57,-3.35228 2.5453,-0.8147 5.2506,-1.22872 8.0426,-1.22872 2.7919,0 5.4972,0.41402 8.0426,1.22872 2.4587,0.78799 4.6709,1.91654 6.57,3.35228 1.899,1.43574 3.3916,3.10525 4.4311,4.96835 1.0794,1.9232 1.6258,3.9733 1.6258,6.0835 v 2.9049 h 2.8452 V 18.3116 C 51.6013,8.49515 41.08,0.535156 28.0999,0.535156 15.1131,0.535156 4.5918,8.49515 4.5918,18.3116 v 2.9049 z" fill="#19191a" id="path1326"/>
    <path d="m 48.71,30.0508 h -1.0062 c -1.5126,0 -2.7386,-1.2287 -2.7386,-2.7446 V 19.807 c 0,-1.5159 1.226,-2.7446 2.7386,-2.7446 H 48.71 Z" fill="#e76a10" id="path1328"/>
    <path d="m 7.49023,17.0625 h 1.00616 c 1.51261,0 2.73861,1.2287 2.73861,2.7446 v 7.4992 c 0,1.5159 -1.226,2.7446 -2.73861,2.7446 H 7.49023 Z" fill="#e76a10" id="path1330"/>
    <path d="m 14.5533,7.67378 c 0.3132,0 0.6064,-0.09349 0.8329,-0.25376 1.6525,-1.16195 3.5782,-2.07013 5.7171,-2.70453 2.2123,-0.65443 4.5711,-0.98832 6.9965,-0.98832 2.4254,0 4.7843,0.33389 6.9965,0.98832 2.1389,0.6344 4.0646,1.54258 5.7171,2.70453 0.2265,0.16027 0.5264,0.25376 0.8329,0.25376 h 2.7453 c 1.0528,0 1.6191,-0.94826 0.9062,-1.53591 C 41.1732,2.71214 35.003,0.535156 28.1065,0.535156 21.21,0.535156 15.0331,2.71214 10.9018,6.13119 10.1889,6.71884 10.7553,7.6671 11.8081,7.6671 h 2.7452 z" fill="#19191a" id="path1332"/>
    <path d="m 49.8095,15.8203 h 1.5725 c 1.7392,0 3.1518,1.4157 3.1518,3.1586 v 9.1554 c 0,1.7429 -1.4126,3.1586 -3.1518,3.1586 h -1.5725 c -0.6263,0 -1.1327,-0.5075 -1.1327,-1.1352 V 16.9555 c 0,-0.6277 0.5064,-1.1352 1.1327,-1.1352 z" fill="#19191a" id="path1334"/>
    <path d="M 6.39165,31.293 H 4.81912 C 3.08,31.293 1.66738,29.8773 1.66738,28.1343 V 18.979 c 0,-1.7429 1.41262,-3.1586 3.15174,-3.1586 h 1.57253 c 0.62635,0 1.13276,0.5075 1.13276,1.1352 v 13.2021 c 0,0.6278 -0.50641,1.1353 -1.13276,1.1353 z" fill="#19191a" id="path1336"/>
  </g>
  <defs id="defs1343">
    <clipPath id="clip0_485_26124">
      <rect width="59.776402" height="45.302502" fill="#ffffff" transform="translate(0.427734,0.535156)" id="rect1340" x="0" y="0"/>
    </clipPath>
  </defs>
</svg>