<svg width="41" height="40" viewBox="0 0 41 40" fill="none" xmlns="http://www.w3.org/2000/svg">
<g clipPath="url(#clip0_3_52419)">
<path d="M40.3359 20C40.3359 8.9544 31.3815 0 20.3359 0C9.29034 0 0.335938 8.9544 0.335938 20C0.335938 29.3792 6.79354 37.2496 15.5047 39.4112V26.112H11.3807V20H15.5047V17.3664C15.5047 10.5592 18.5855 7.404 25.2687 7.404C26.5359 7.404 28.7223 7.6528 29.6167 7.9008V13.4408C29.1447 13.3912 28.3247 13.3664 27.3063 13.3664C24.0271 13.3664 22.7599 14.6088 22.7599 17.8384V20H29.2927L28.1703 26.112H22.7599V39.8536C32.6631 38.6576 40.3367 30.2256 40.3367 20H40.3359Z" fill="#0866FF"/>
<path d="M28.1685 26.1121L29.2909 20.0001H22.7581V17.8385C22.7581 14.6089 24.0253 13.3665 27.3045 13.3665C28.3229 13.3665 29.1429 13.3913 29.6149 13.4409V7.90085C28.7205 7.65205 26.5341 7.40405 25.2669 7.40405C18.5837 7.40405 15.5029 10.5593 15.5029 17.3665V20.0001H11.3789V26.1121H15.5029V39.4113C17.0501 39.7953 18.6685 40.0001 20.3341 40.0001C21.1541 40.0001 21.9629 39.9496 22.7573 39.8537V26.1121H28.1677H28.1685Z" fill="white"/>
</g>
<defs>
<clipPath id="clip0_3_52419">
<rect width="40" height="40" fill="white" transform="translate(0.335938)"/>
</clipPath>
</defs>
</svg>
