<svg xmlns="http://www.w3.org/2000/svg" width="22" height="18" viewBox="0 0 22 18" fill="none"><script xmlns=""/>
<g clip-path="url(#clip0_91_42908)">
<path d="M21.3115 16.1548H0.688469C0.308238 16.1548 0 16.463 0 16.8433C0 17.2235 0.308238 17.5317 0.688469 17.5317H21.3115C21.6918 17.5317 22 17.2235 22 16.8433C22 16.463 21.6918 16.1548 21.3115 16.1548Z" fill="#7E7E7E"/>
<path d="M21.3115 8.31494H0.688469C0.308238 8.31494 0 8.62318 0 9.00341C0 9.38364 0.308238 9.69188 0.688469 9.69188H21.3115C21.6918 9.69188 22 9.38364 22 9.00341C22 8.62318 21.6918 8.31494 21.3115 8.31494Z" fill="#7E7E7E"/>
<path d="M21.3115 0.46875H0.688469C0.308238 0.46875 0 0.776988 0 1.15722C0 1.53745 0.308238 1.84569 0.688469 1.84569H21.3115C21.6918 1.84569 22 1.53745 22 1.15722C22 0.776988 21.6918 0.46875 21.3115 0.46875Z" fill="#7E7E7E"/>
</g>
<defs>
<clipPath id="clip0_91_42908">
<rect width="22" height="17.0629" fill="white" transform="translate(0 0.46875)"/>
</clipPath>
</defs>
<script xmlns=""/></svg>