<svg width="43" height="40" viewBox="0 0 43 40" fill="none" xmlns="http://www.w3.org/2000/svg">
<g clipPath="url(#clip0_3_52416)">
<path d="M42.3346 17.035C42.3346 7.64518 32.9857 0 21.5062 0C10.0267 0 0.667969 7.64518 0.667969 17.035C0.667969 25.4545 8.081 32.5116 18.0915 33.8446C18.7725 33.9917 19.6967 34.2955 19.9302 34.8836C20.1442 35.4129 20.0664 36.246 19.9983 36.7851C19.9983 36.7851 19.7551 38.2651 19.7064 38.5788C19.6189 39.1081 19.2881 40.6567 21.5062 39.706C23.734 38.765 33.5013 32.5901 37.879 27.5227C40.9046 24.1901 42.3444 20.7988 42.3444 17.0448L42.3346 17.035ZM13.344 22.6219H9.20949C8.60633 22.6219 8.11991 22.1318 8.11991 21.5241V13.183C8.11991 12.5753 8.60633 12.0853 9.20949 12.0853C9.81265 12.0853 10.2991 12.5753 10.2991 13.183V20.4264H13.344C13.9472 20.4264 14.4336 20.9164 14.4336 21.5241C14.4336 22.1318 13.9472 22.6219 13.344 22.6219ZM17.6245 21.5241C17.6245 22.1318 17.1381 22.6219 16.535 22.6219C15.9318 22.6219 15.4454 22.1318 15.4454 21.5241V13.183C15.4454 12.5753 15.9318 12.0853 16.535 12.0853C17.1381 12.0853 17.6245 12.5753 17.6245 13.183V21.5241ZM27.5961 21.5241C27.5961 22.0044 27.2945 22.4161 26.847 22.5729C26.7303 22.6121 26.6136 22.6317 26.4968 22.6317C26.1563 22.6317 25.8353 22.4651 25.6213 22.1906L21.3797 16.3685V21.5241C21.3797 22.1318 20.8933 22.6219 20.2901 22.6219C19.687 22.6219 19.2005 22.1318 19.2005 21.5241V13.183C19.2005 12.7126 19.5021 12.2911 19.9496 12.1343C20.0664 12.0951 20.1831 12.0755 20.2998 12.0755C20.6403 12.0755 20.9711 12.2421 21.1754 12.5165L25.417 18.3386V13.1732C25.417 12.5655 25.9131 12.0755 26.5065 12.0755C27.1 12.0755 27.5961 12.5655 27.5961 13.1732V21.5143V21.5241ZM34.2893 16.2509C34.8924 16.2509 35.3788 16.741 35.3788 17.3487C35.3788 17.9564 34.8924 18.4465 34.2893 18.4465H31.2443V20.4166H34.2893C34.8924 20.4166 35.3788 20.9066 35.3788 21.5143C35.3788 22.122 34.8924 22.6121 34.2893 22.6121H30.145C29.5418 22.6121 29.0554 22.122 29.0554 21.5143V17.3487V13.1732C29.0554 12.5655 29.5418 12.0755 30.145 12.0755H34.2893C34.8924 12.0755 35.3788 12.5655 35.3788 13.1732C35.3788 13.7809 34.8924 14.271 34.2893 14.271H31.2443V16.2411H34.2893V16.2509Z" fill="#00B34F"/>
</g>
<defs>
<clipPath id="clip0_3_52416">
<rect width="41.6667" height="40" fill="white" transform="translate(0.667969)"/>
</clipPath>
</defs>
</svg>
