<svg xmlns="http://www.w3.org/2000/svg" width="126" height="125" viewBox="0 0 126 125" fill="none"><script xmlns=""/>
<path d="M125.5 0H0.5V125H125.5V0Z" fill="white"/>
<path d="M9.75927 4.62939H5.12964V9.25902H9.75927V4.62939Z" fill="black"/>
<path d="M14.3889 4.62939H9.75928V9.25902H14.3889V4.62939Z" fill="black"/>
<path d="M19.0185 4.62939H14.3889V9.25902H19.0185V4.62939Z" fill="black"/>
<path d="M23.6482 4.62939H19.0186V9.25902H23.6482V4.62939Z" fill="black"/>
<path d="M28.2778 4.62939H23.6482V9.25902H28.2778V4.62939Z" fill="black"/>
<path d="M32.9075 4.62939H28.2778V9.25902H32.9075V4.62939Z" fill="black"/>
<path d="M37.5371 4.62939H32.9075V9.25902H37.5371V4.62939Z" fill="black"/>
<path d="M46.7964 4.62939H42.1667V9.25902H46.7964V4.62939Z" fill="black"/>
<path d="M51.426 4.62939H46.7964V9.25902H51.426V4.62939Z" fill="black"/>
<path d="M56.0557 4.62939H51.426V9.25902H56.0557V4.62939Z" fill="black"/>
<path d="M60.6853 4.62939H56.0557V9.25902H60.6853V4.62939Z" fill="black"/>
<path d="M74.574 4.62939H69.9443V9.25902H74.574V4.62939Z" fill="black"/>
<path d="M83.8332 4.62939H79.2036V9.25902H83.8332V4.62939Z" fill="black"/>
<path d="M93.0925 4.62939H88.4629V9.25902H93.0925V4.62939Z" fill="black"/>
<path d="M97.7222 4.62939H93.0925V9.25902H97.7222V4.62939Z" fill="black"/>
<path d="M102.352 4.62939H97.7222V9.25902H102.352V4.62939Z" fill="black"/>
<path d="M106.981 4.62939H102.352V9.25902H106.981V4.62939Z" fill="black"/>
<path d="M111.611 4.62939H106.981V9.25902H111.611V4.62939Z" fill="black"/>
<path d="M116.241 4.62939H111.611V9.25902H116.241V4.62939Z" fill="black"/>
<path d="M120.87 4.62939H116.241V9.25902H120.87V4.62939Z" fill="black"/>
<path d="M9.75927 9.25928H5.12964V13.8889H9.75927V9.25928Z" fill="black"/>
<path d="M37.5371 9.25928H32.9075V13.8889H37.5371V9.25928Z" fill="black"/>
<path d="M60.6853 9.25928H56.0557V13.8889H60.6853V9.25928Z" fill="black"/>
<path d="M65.3149 9.25928H60.6853V13.8889H65.3149V9.25928Z" fill="black"/>
<path d="M83.8332 9.25928H79.2036V13.8889H83.8332V9.25928Z" fill="black"/>
<path d="M93.0925 9.25928H88.4629V13.8889H93.0925V9.25928Z" fill="black"/>
<path d="M120.87 9.25928H116.241V13.8889H120.87V9.25928Z" fill="black"/>
<path d="M9.75927 13.8887H5.12964V18.5183H9.75927V13.8887Z" fill="black"/>
<path d="M19.0185 13.8887H14.3889V18.5183H19.0185V13.8887Z" fill="black"/>
<path d="M23.6482 13.8887H19.0186V18.5183H23.6482V13.8887Z" fill="black"/>
<path d="M28.2778 13.8887H23.6482V18.5183H28.2778V13.8887Z" fill="black"/>
<path d="M37.5371 13.8887H32.9075V18.5183H37.5371V13.8887Z" fill="black"/>
<path d="M51.426 13.8887H46.7964V18.5183H51.426V13.8887Z" fill="black"/>
<path d="M60.6853 13.8887H56.0557V18.5183H60.6853V13.8887Z" fill="black"/>
<path d="M69.9443 13.8887H65.3147V18.5183H69.9443V13.8887Z" fill="black"/>
<path d="M74.574 13.8887H69.9443V18.5183H74.574V13.8887Z" fill="black"/>
<path d="M93.0925 13.8887H88.4629V18.5183H93.0925V13.8887Z" fill="black"/>
<path d="M102.352 13.8887H97.7222V18.5183H102.352V13.8887Z" fill="black"/>
<path d="M106.981 13.8887H102.352V18.5183H106.981V13.8887Z" fill="black"/>
<path d="M111.611 13.8887H106.981V18.5183H111.611V13.8887Z" fill="black"/>
<path d="M120.87 13.8887H116.241V18.5183H120.87V13.8887Z" fill="black"/>
<path d="M9.75927 18.5186H5.12964V23.1482H9.75927V18.5186Z" fill="black"/>
<path d="M19.0185 18.5186H14.3889V23.1482H19.0185V18.5186Z" fill="black"/>
<path d="M23.6482 18.5186H19.0186V23.1482H23.6482V18.5186Z" fill="black"/>
<path d="M28.2778 18.5186H23.6482V23.1482H28.2778V18.5186Z" fill="black"/>
<path d="M37.5371 18.5186H32.9075V23.1482H37.5371V18.5186Z" fill="black"/>
<path d="M56.0557 18.5186H51.426V23.1482H56.0557V18.5186Z" fill="black"/>
<path d="M60.6853 18.5186H56.0557V23.1482H60.6853V18.5186Z" fill="black"/>
<path d="M69.9443 18.5186H65.3147V23.1482H69.9443V18.5186Z" fill="black"/>
<path d="M79.2036 18.5186H74.574V23.1482H79.2036V18.5186Z" fill="black"/>
<path d="M83.8332 18.5186H79.2036V23.1482H83.8332V18.5186Z" fill="black"/>
<path d="M93.0925 18.5186H88.4629V23.1482H93.0925V18.5186Z" fill="black"/>
<path d="M102.352 18.5186H97.7222V23.1482H102.352V18.5186Z" fill="black"/>
<path d="M106.981 18.5186H102.352V23.1482H106.981V18.5186Z" fill="black"/>
<path d="M111.611 18.5186H106.981V23.1482H111.611V18.5186Z" fill="black"/>
<path d="M120.87 18.5186H116.241V23.1482H120.87V18.5186Z" fill="black"/>
<path d="M9.75927 23.1479H5.12964V27.7776H9.75927V23.1479Z" fill="black"/>
<path d="M19.0185 23.1479H14.3889V27.7776H19.0185V23.1479Z" fill="black"/>
<path d="M23.6482 23.1479H19.0186V27.7776H23.6482V23.1479Z" fill="black"/>
<path d="M28.2778 23.1479H23.6482V27.7776H28.2778V23.1479Z" fill="black"/>
<path d="M37.5371 23.1479H32.9075V27.7776H37.5371V23.1479Z" fill="black"/>
<path d="M56.0557 23.1479H51.426V27.7776H56.0557V23.1479Z" fill="black"/>
<path d="M60.6853 23.1479H56.0557V27.7776H60.6853V23.1479Z" fill="black"/>
<path d="M65.3149 23.1479H60.6853V27.7776H65.3149V23.1479Z" fill="black"/>
<path d="M83.8332 23.1479H79.2036V27.7776H83.8332V23.1479Z" fill="black"/>
<path d="M93.0925 23.1479H88.4629V27.7776H93.0925V23.1479Z" fill="black"/>
<path d="M102.352 23.1479H97.7222V27.7776H102.352V23.1479Z" fill="black"/>
<path d="M106.981 23.1479H102.352V27.7776H106.981V23.1479Z" fill="black"/>
<path d="M111.611 23.1479H106.981V27.7776H111.611V23.1479Z" fill="black"/>
<path d="M120.87 23.1479H116.241V27.7776H120.87V23.1479Z" fill="black"/>
<path d="M9.75927 27.7778H5.12964V32.4075H9.75927V27.7778Z" fill="black"/>
<path d="M37.5371 27.7778H32.9075V32.4075H37.5371V27.7778Z" fill="black"/>
<path d="M51.426 27.7778H46.7964V32.4075H51.426V27.7778Z" fill="black"/>
<path d="M60.6853 27.7778H56.0557V32.4075H60.6853V27.7778Z" fill="black"/>
<path d="M83.8332 27.7778H79.2036V32.4075H83.8332V27.7778Z" fill="black"/>
<path d="M93.0925 27.7778H88.4629V32.4075H93.0925V27.7778Z" fill="black"/>
<path d="M120.87 27.7778H116.241V32.4075H120.87V27.7778Z" fill="black"/>
<path d="M9.75927 32.4072H5.12964V37.0369H9.75927V32.4072Z" fill="black"/>
<path d="M14.3889 32.4072H9.75928V37.0369H14.3889V32.4072Z" fill="black"/>
<path d="M19.0185 32.4072H14.3889V37.0369H19.0185V32.4072Z" fill="black"/>
<path d="M23.6482 32.4072H19.0186V37.0369H23.6482V32.4072Z" fill="black"/>
<path d="M28.2778 32.4072H23.6482V37.0369H28.2778V32.4072Z" fill="black"/>
<path d="M32.9075 32.4072H28.2778V37.0369H32.9075V32.4072Z" fill="black"/>
<path d="M37.5371 32.4072H32.9075V37.0369H37.5371V32.4072Z" fill="black"/>
<path d="M46.7964 32.4072H42.1667V37.0369H46.7964V32.4072Z" fill="black"/>
<path d="M56.0557 32.4072H51.426V37.0369H56.0557V32.4072Z" fill="black"/>
<path d="M65.3149 32.4072H60.6853V37.0369H65.3149V32.4072Z" fill="black"/>
<path d="M74.574 32.4072H69.9443V37.0369H74.574V32.4072Z" fill="black"/>
<path d="M83.8332 32.4072H79.2036V37.0369H83.8332V32.4072Z" fill="black"/>
<path d="M93.0925 32.4072H88.4629V37.0369H93.0925V32.4072Z" fill="black"/>
<path d="M97.7222 32.4072H93.0925V37.0369H97.7222V32.4072Z" fill="black"/>
<path d="M102.352 32.4072H97.7222V37.0369H102.352V32.4072Z" fill="black"/>
<path d="M106.981 32.4072H102.352V37.0369H106.981V32.4072Z" fill="black"/>
<path d="M111.611 32.4072H106.981V37.0369H111.611V32.4072Z" fill="black"/>
<path d="M116.241 32.4072H111.611V37.0369H116.241V32.4072Z" fill="black"/>
<path d="M120.87 32.4072H116.241V37.0369H120.87V32.4072Z" fill="black"/>
<path d="M46.7964 37.0371H42.1667V41.6667H46.7964V37.0371Z" fill="black"/>
<path d="M51.426 37.0371H46.7964V41.6667H51.426V37.0371Z" fill="black"/>
<path d="M65.3149 37.0371H60.6853V41.6667H65.3149V37.0371Z" fill="black"/>
<path d="M69.9443 37.0371H65.3147V41.6667H69.9443V37.0371Z" fill="black"/>
<path d="M74.574 37.0371H69.9443V41.6667H74.574V37.0371Z" fill="black"/>
<path d="M83.8332 37.0371H79.2036V41.6667H83.8332V37.0371Z" fill="black"/>
<path d="M9.75927 41.6665H5.12964V46.2961H9.75927V41.6665Z" fill="black"/>
<path d="M14.3889 41.6665H9.75928V46.2961H14.3889V41.6665Z" fill="black"/>
<path d="M23.6482 41.6665H19.0186V46.2961H23.6482V41.6665Z" fill="black"/>
<path d="M28.2778 41.6665H23.6482V46.2961H28.2778V41.6665Z" fill="black"/>
<path d="M37.5371 41.6665H32.9075V46.2961H37.5371V41.6665Z" fill="black"/>
<path d="M51.426 41.6665H46.7964V46.2961H51.426V41.6665Z" fill="black"/>
<path d="M65.3149 41.6665H60.6853V46.2961H65.3149V41.6665Z" fill="black"/>
<path d="M74.574 41.6665H69.9443V46.2961H74.574V41.6665Z" fill="black"/>
<path d="M79.2036 41.6665H74.574V46.2961H79.2036V41.6665Z" fill="black"/>
<path d="M93.0925 41.6665H88.4629V46.2961H93.0925V41.6665Z" fill="black"/>
<path d="M120.87 41.6665H116.241V46.2961H120.87V41.6665Z" fill="black"/>
<path d="M19.0185 46.2964H14.3889V50.926H19.0185V46.2964Z" fill="black"/>
<path d="M28.2778 46.2964H23.6482V50.926H28.2778V46.2964Z" fill="black"/>
<path d="M32.9075 46.2964H28.2778V50.926H32.9075V46.2964Z" fill="black"/>
<path d="M56.0557 46.2964H51.426V50.926H56.0557V46.2964Z" fill="black"/>
<path d="M79.2036 46.2964H74.574V50.926H79.2036V46.2964Z" fill="black"/>
<path d="M97.7222 46.2964H93.0925V50.926H97.7222V46.2964Z" fill="black"/>
<path d="M102.352 46.2964H97.7222V50.926H102.352V46.2964Z" fill="black"/>
<path d="M106.981 46.2964H102.352V50.926H106.981V46.2964Z" fill="black"/>
<path d="M111.611 46.2964H106.981V50.926H111.611V46.2964Z" fill="black"/>
<path d="M116.241 46.2964H111.611V50.926H116.241V46.2964Z" fill="black"/>
<path d="M19.0185 50.9258H14.3889V55.5554H19.0185V50.9258Z" fill="black"/>
<path d="M28.2778 50.9258H23.6482V55.5554H28.2778V50.9258Z" fill="black"/>
<path d="M37.5371 50.9258H32.9075V55.5554H37.5371V50.9258Z" fill="black"/>
<path d="M46.7964 50.9258H42.1667V55.5554H46.7964V50.9258Z" fill="black"/>
<path d="M51.426 50.9258H46.7964V55.5554H51.426V50.9258Z" fill="black"/>
<path d="M65.3149 50.9258H60.6853V55.5554H65.3149V50.9258Z" fill="black"/>
<path d="M69.9443 50.9258H65.3147V55.5554H69.9443V50.9258Z" fill="black"/>
<path d="M79.2036 50.9258H74.574V55.5554H79.2036V50.9258Z" fill="black"/>
<path d="M93.0925 50.9258H88.4629V55.5554H93.0925V50.9258Z" fill="black"/>
<path d="M106.981 50.9258H102.352V55.5554H106.981V50.9258Z" fill="black"/>
<path d="M120.87 50.9258H116.241V55.5554H120.87V50.9258Z" fill="black"/>
<path d="M19.0185 55.5557H14.3889V60.1853H19.0185V55.5557Z" fill="black"/>
<path d="M23.6482 55.5557H19.0186V60.1853H23.6482V55.5557Z" fill="black"/>
<path d="M32.9075 55.5557H28.2778V60.1853H32.9075V55.5557Z" fill="black"/>
<path d="M46.7964 55.5557H42.1667V60.1853H46.7964V55.5557Z" fill="black"/>
<path d="M74.574 55.5557H69.9443V60.1853H74.574V55.5557Z" fill="black"/>
<path d="M79.2036 55.5557H74.574V60.1853H79.2036V55.5557Z" fill="black"/>
<path d="M93.0925 55.5557H88.4629V60.1853H93.0925V55.5557Z" fill="black"/>
<path d="M97.7222 55.5557H93.0925V60.1853H97.7222V55.5557Z" fill="black"/>
<path d="M102.352 55.5557H97.7222V60.1853H102.352V55.5557Z" fill="black"/>
<path d="M106.981 55.5557H102.352V60.1853H106.981V55.5557Z" fill="black"/>
<path d="M111.611 55.5557H106.981V60.1853H111.611V55.5557Z" fill="black"/>
<path d="M116.241 55.5557H111.611V60.1853H116.241V55.5557Z" fill="black"/>
<path d="M120.87 55.5557H116.241V60.1853H120.87V55.5557Z" fill="black"/>
<path d="M9.75927 60.1851H5.12964V64.8147H9.75927V60.1851Z" fill="black"/>
<path d="M23.6482 60.1851H19.0186V64.8147H23.6482V60.1851Z" fill="black"/>
<path d="M28.2778 60.1851H23.6482V64.8147H28.2778V60.1851Z" fill="black"/>
<path d="M32.9075 60.1851H28.2778V64.8147H32.9075V60.1851Z" fill="black"/>
<path d="M37.5371 60.1851H32.9075V64.8147H37.5371V60.1851Z" fill="black"/>
<path d="M46.7964 60.1851H42.1667V64.8147H46.7964V60.1851Z" fill="black"/>
<path d="M51.426 60.1851H46.7964V64.8147H51.426V60.1851Z" fill="black"/>
<path d="M56.0557 60.1851H51.426V64.8147H56.0557V60.1851Z" fill="black"/>
<path d="M83.8332 60.1851H79.2036V64.8147H83.8332V60.1851Z" fill="black"/>
<path d="M93.0925 60.1851H88.4629V64.8147H93.0925V60.1851Z" fill="black"/>
<path d="M97.7222 60.1851H93.0925V64.8147H97.7222V60.1851Z" fill="black"/>
<path d="M120.87 60.1851H116.241V64.8147H120.87V60.1851Z" fill="black"/>
<path d="M9.75927 64.8149H5.12964V69.4446H9.75927V64.8149Z" fill="black"/>
<path d="M19.0185 64.8149H14.3889V69.4446H19.0185V64.8149Z" fill="black"/>
<path d="M23.6482 64.8149H19.0186V69.4446H23.6482V64.8149Z" fill="black"/>
<path d="M56.0557 64.8149H51.426V69.4446H56.0557V64.8149Z" fill="black"/>
<path d="M65.3149 64.8149H60.6853V69.4446H65.3149V64.8149Z" fill="black"/>
<path d="M74.574 64.8149H69.9443V69.4446H74.574V64.8149Z" fill="black"/>
<path d="M79.2036 64.8149H74.574V69.4446H79.2036V64.8149Z" fill="black"/>
<path d="M102.352 64.8149H97.7222V69.4446H102.352V64.8149Z" fill="black"/>
<path d="M116.241 64.8149H111.611V69.4446H116.241V64.8149Z" fill="black"/>
<path d="M9.75927 69.4443H5.12964V74.074H9.75927V69.4443Z" fill="black"/>
<path d="M14.3889 69.4443H9.75928V74.074H14.3889V69.4443Z" fill="black"/>
<path d="M28.2778 69.4443H23.6482V74.074H28.2778V69.4443Z" fill="black"/>
<path d="M37.5371 69.4443H32.9075V74.074H37.5371V69.4443Z" fill="black"/>
<path d="M42.1667 69.4443H37.5371V74.074H42.1667V69.4443Z" fill="black"/>
<path d="M56.0557 69.4443H51.426V74.074H56.0557V69.4443Z" fill="black"/>
<path d="M79.2036 69.4443H74.574V74.074H79.2036V69.4443Z" fill="black"/>
<path d="M88.4629 69.4443H83.8333V74.074H88.4629V69.4443Z" fill="black"/>
<path d="M102.352 69.4443H97.7222V74.074H102.352V69.4443Z" fill="black"/>
<path d="M106.981 69.4443H102.352V74.074H106.981V69.4443Z" fill="black"/>
<path d="M111.611 69.4443H106.981V74.074H111.611V69.4443Z" fill="black"/>
<path d="M116.241 69.4443H111.611V74.074H116.241V69.4443Z" fill="black"/>
<path d="M120.87 69.4443H116.241V74.074H120.87V69.4443Z" fill="black"/>
<path d="M9.75927 74.0742H5.12964V78.7039H9.75927V74.0742Z" fill="black"/>
<path d="M23.6482 74.0742H19.0186V78.7039H23.6482V74.0742Z" fill="black"/>
<path d="M28.2778 74.0742H23.6482V78.7039H28.2778V74.0742Z" fill="black"/>
<path d="M32.9075 74.0742H28.2778V78.7039H32.9075V74.0742Z" fill="black"/>
<path d="M46.7964 74.0742H42.1667V78.7039H46.7964V74.0742Z" fill="black"/>
<path d="M65.3149 74.0742H60.6853V78.7039H65.3149V74.0742Z" fill="black"/>
<path d="M74.574 74.0742H69.9443V78.7039H74.574V74.0742Z" fill="black"/>
<path d="M79.2036 74.0742H74.574V78.7039H79.2036V74.0742Z" fill="black"/>
<path d="M83.8332 74.0742H79.2036V78.7039H83.8332V74.0742Z" fill="black"/>
<path d="M93.0925 74.0742H88.4629V78.7039H93.0925V74.0742Z" fill="black"/>
<path d="M97.7222 74.0742H93.0925V78.7039H97.7222V74.0742Z" fill="black"/>
<path d="M111.611 74.0742H106.981V78.7039H111.611V74.0742Z" fill="black"/>
<path d="M120.87 74.0742H116.241V78.7039H120.87V74.0742Z" fill="black"/>
<path d="M9.75927 78.7036H5.12964V83.3332H9.75927V78.7036Z" fill="black"/>
<path d="M19.0185 78.7036H14.3889V83.3332H19.0185V78.7036Z" fill="black"/>
<path d="M23.6482 78.7036H19.0186V83.3332H23.6482V78.7036Z" fill="black"/>
<path d="M28.2778 78.7036H23.6482V83.3332H28.2778V78.7036Z" fill="black"/>
<path d="M32.9075 78.7036H28.2778V83.3332H32.9075V78.7036Z" fill="black"/>
<path d="M37.5371 78.7036H32.9075V83.3332H37.5371V78.7036Z" fill="black"/>
<path d="M42.1667 78.7036H37.5371V83.3332H42.1667V78.7036Z" fill="black"/>
<path d="M46.7964 78.7036H42.1667V83.3332H46.7964V78.7036Z" fill="black"/>
<path d="M51.426 78.7036H46.7964V83.3332H51.426V78.7036Z" fill="black"/>
<path d="M56.0557 78.7036H51.426V83.3332H56.0557V78.7036Z" fill="black"/>
<path d="M60.6853 78.7036H56.0557V83.3332H60.6853V78.7036Z" fill="black"/>
<path d="M65.3149 78.7036H60.6853V83.3332H65.3149V78.7036Z" fill="black"/>
<path d="M69.9443 78.7036H65.3147V83.3332H69.9443V78.7036Z" fill="black"/>
<path d="M83.8332 78.7036H79.2036V83.3332H83.8332V78.7036Z" fill="black"/>
<path d="M88.4629 78.7036H83.8333V83.3332H88.4629V78.7036Z" fill="black"/>
<path d="M93.0925 78.7036H88.4629V83.3332H93.0925V78.7036Z" fill="black"/>
<path d="M97.7222 78.7036H93.0925V83.3332H97.7222V78.7036Z" fill="black"/>
<path d="M102.352 78.7036H97.7222V83.3332H102.352V78.7036Z" fill="black"/>
<path d="M111.611 78.7036H106.981V83.3332H111.611V78.7036Z" fill="black"/>
<path d="M116.241 78.7036H111.611V83.3332H116.241V78.7036Z" fill="black"/>
<path d="M46.7964 83.3335H42.1667V87.9631H46.7964V83.3335Z" fill="black"/>
<path d="M56.0557 83.3335H51.426V87.9631H56.0557V83.3335Z" fill="black"/>
<path d="M60.6853 83.3335H56.0557V87.9631H60.6853V83.3335Z" fill="black"/>
<path d="M69.9443 83.3335H65.3147V87.9631H69.9443V83.3335Z" fill="black"/>
<path d="M74.574 83.3335H69.9443V87.9631H74.574V83.3335Z" fill="black"/>
<path d="M83.8332 83.3335H79.2036V87.9631H83.8332V83.3335Z" fill="black"/>
<path d="M102.352 83.3335H97.7222V87.9631H102.352V83.3335Z" fill="black"/>
<path d="M116.241 83.3335H111.611V87.9631H116.241V83.3335Z" fill="black"/>
<path d="M9.75927 87.9629H5.12964V92.5925H9.75927V87.9629Z" fill="black"/>
<path d="M14.3889 87.9629H9.75928V92.5925H14.3889V87.9629Z" fill="black"/>
<path d="M19.0185 87.9629H14.3889V92.5925H19.0185V87.9629Z" fill="black"/>
<path d="M23.6482 87.9629H19.0186V92.5925H23.6482V87.9629Z" fill="black"/>
<path d="M28.2778 87.9629H23.6482V92.5925H28.2778V87.9629Z" fill="black"/>
<path d="M32.9075 87.9629H28.2778V92.5925H32.9075V87.9629Z" fill="black"/>
<path d="M37.5371 87.9629H32.9075V92.5925H37.5371V87.9629Z" fill="black"/>
<path d="M51.426 87.9629H46.7964V92.5925H51.426V87.9629Z" fill="black"/>
<path d="M65.3149 87.9629H60.6853V92.5925H65.3149V87.9629Z" fill="black"/>
<path d="M69.9443 87.9629H65.3147V92.5925H69.9443V87.9629Z" fill="black"/>
<path d="M74.574 87.9629H69.9443V92.5925H74.574V87.9629Z" fill="black"/>
<path d="M83.8332 87.9629H79.2036V92.5925H83.8332V87.9629Z" fill="black"/>
<path d="M93.0925 87.9629H88.4629V92.5925H93.0925V87.9629Z" fill="black"/>
<path d="M102.352 87.9629H97.7222V92.5925H102.352V87.9629Z" fill="black"/>
<path d="M106.981 87.9629H102.352V92.5925H106.981V87.9629Z" fill="black"/>
<path d="M120.87 87.9629H116.241V92.5925H120.87V87.9629Z" fill="black"/>
<path d="M9.75927 92.5928H5.12964V97.2224H9.75927V92.5928Z" fill="black"/>
<path d="M37.5371 92.5928H32.9075V97.2224H37.5371V92.5928Z" fill="black"/>
<path d="M56.0557 92.5928H51.426V97.2224H56.0557V92.5928Z" fill="black"/>
<path d="M60.6853 92.5928H56.0557V97.2224H60.6853V92.5928Z" fill="black"/>
<path d="M69.9443 92.5928H65.3147V97.2224H69.9443V92.5928Z" fill="black"/>
<path d="M74.574 92.5928H69.9443V97.2224H74.574V92.5928Z" fill="black"/>
<path d="M79.2036 92.5928H74.574V97.2224H79.2036V92.5928Z" fill="black"/>
<path d="M83.8332 92.5928H79.2036V97.2224H83.8332V92.5928Z" fill="black"/>
<path d="M102.352 92.5928H97.7222V97.2224H102.352V92.5928Z" fill="black"/>
<path d="M120.87 92.5928H116.241V97.2224H120.87V92.5928Z" fill="black"/>
<path d="M9.75927 97.2222H5.12964V101.852H9.75927V97.2222Z" fill="black"/>
<path d="M19.0185 97.2222H14.3889V101.852H19.0185V97.2222Z" fill="black"/>
<path d="M23.6482 97.2222H19.0186V101.852H23.6482V97.2222Z" fill="black"/>
<path d="M28.2778 97.2222H23.6482V101.852H28.2778V97.2222Z" fill="black"/>
<path d="M37.5371 97.2222H32.9075V101.852H37.5371V97.2222Z" fill="black"/>
<path d="M46.7964 97.2222H42.1667V101.852H46.7964V97.2222Z" fill="black"/>
<path d="M51.426 97.2222H46.7964V101.852H51.426V97.2222Z" fill="black"/>
<path d="M56.0557 97.2222H51.426V101.852H56.0557V97.2222Z" fill="black"/>
<path d="M60.6853 97.2222H56.0557V101.852H60.6853V97.2222Z" fill="black"/>
<path d="M65.3149 97.2222H60.6853V101.852H65.3149V97.2222Z" fill="black"/>
<path d="M79.2036 97.2222H74.574V101.852H79.2036V97.2222Z" fill="black"/>
<path d="M83.8332 97.2222H79.2036V101.852H83.8332V97.2222Z" fill="black"/>
<path d="M88.4629 97.2222H83.8333V101.852H88.4629V97.2222Z" fill="black"/>
<path d="M93.0925 97.2222H88.4629V101.852H93.0925V97.2222Z" fill="black"/>
<path d="M97.7222 97.2222H93.0925V101.852H97.7222V97.2222Z" fill="black"/>
<path d="M102.352 97.2222H97.7222V101.852H102.352V97.2222Z" fill="black"/>
<path d="M106.981 97.2222H102.352V101.852H106.981V97.2222Z" fill="black"/>
<path d="M9.75927 101.852H5.12964V106.482H9.75927V101.852Z" fill="black"/>
<path d="M19.0185 101.852H14.3889V106.482H19.0185V101.852Z" fill="black"/>
<path d="M23.6482 101.852H19.0186V106.482H23.6482V101.852Z" fill="black"/>
<path d="M28.2778 101.852H23.6482V106.482H28.2778V101.852Z" fill="black"/>
<path d="M37.5371 101.852H32.9075V106.482H37.5371V101.852Z" fill="black"/>
<path d="M46.7964 101.852H42.1667V106.482H46.7964V101.852Z" fill="black"/>
<path d="M65.3149 101.852H60.6853V106.482H65.3149V101.852Z" fill="black"/>
<path d="M69.9443 101.852H65.3147V106.482H69.9443V101.852Z" fill="black"/>
<path d="M88.4629 101.852H83.8333V106.482H88.4629V101.852Z" fill="black"/>
<path d="M93.0925 101.852H88.4629V106.482H93.0925V101.852Z" fill="black"/>
<path d="M106.981 101.852H102.352V106.482H106.981V101.852Z" fill="black"/>
<path d="M116.241 101.852H111.611V106.482H116.241V101.852Z" fill="black"/>
<path d="M120.87 101.852H116.241V106.482H120.87V101.852Z" fill="black"/>
<path d="M9.75927 106.481H5.12964V111.111H9.75927V106.481Z" fill="black"/>
<path d="M19.0185 106.481H14.3889V111.111H19.0185V106.481Z" fill="black"/>
<path d="M23.6482 106.481H19.0186V111.111H23.6482V106.481Z" fill="black"/>
<path d="M28.2778 106.481H23.6482V111.111H28.2778V106.481Z" fill="black"/>
<path d="M37.5371 106.481H32.9075V111.111H37.5371V106.481Z" fill="black"/>
<path d="M51.426 106.481H46.7964V111.111H51.426V106.481Z" fill="black"/>
<path d="M60.6853 106.481H56.0557V111.111H60.6853V106.481Z" fill="black"/>
<path d="M65.3149 106.481H60.6853V111.111H65.3149V106.481Z" fill="black"/>
<path d="M74.574 106.481H69.9443V111.111H74.574V106.481Z" fill="black"/>
<path d="M83.8332 106.481H79.2036V111.111H83.8332V106.481Z" fill="black"/>
<path d="M88.4629 106.481H83.8333V111.111H88.4629V106.481Z" fill="black"/>
<path d="M97.7222 106.481H93.0925V111.111H97.7222V106.481Z" fill="black"/>
<path d="M102.352 106.481H97.7222V111.111H102.352V106.481Z" fill="black"/>
<path d="M111.611 106.481H106.981V111.111H111.611V106.481Z" fill="black"/>
<path d="M116.241 106.481H111.611V111.111H116.241V106.481Z" fill="black"/>
<path d="M120.87 106.481H116.241V111.111H120.87V106.481Z" fill="black"/>
<path d="M9.75927 111.111H5.12964V115.741H9.75927V111.111Z" fill="black"/>
<path d="M37.5371 111.111H32.9075V115.741H37.5371V111.111Z" fill="black"/>
<path d="M46.7964 111.111H42.1667V115.741H46.7964V111.111Z" fill="black"/>
<path d="M56.0557 111.111H51.426V115.741H56.0557V111.111Z" fill="black"/>
<path d="M65.3149 111.111H60.6853V115.741H65.3149V111.111Z" fill="black"/>
<path d="M88.4629 111.111H83.8333V115.741H88.4629V111.111Z" fill="black"/>
<path d="M97.7222 111.111H93.0925V115.741H97.7222V111.111Z" fill="black"/>
<path d="M102.352 111.111H97.7222V115.741H102.352V111.111Z" fill="black"/>
<path d="M111.611 111.111H106.981V115.741H111.611V111.111Z" fill="black"/>
<path d="M116.241 111.111H111.611V115.741H116.241V111.111Z" fill="black"/>
<path d="M120.87 111.111H116.241V115.741H120.87V111.111Z" fill="black"/>
<path d="M9.75927 115.741H5.12964V120.37H9.75927V115.741Z" fill="black"/>
<path d="M14.3889 115.741H9.75928V120.37H14.3889V115.741Z" fill="black"/>
<path d="M19.0185 115.741H14.3889V120.37H19.0185V115.741Z" fill="black"/>
<path d="M23.6482 115.741H19.0186V120.37H23.6482V115.741Z" fill="black"/>
<path d="M28.2778 115.741H23.6482V120.37H28.2778V115.741Z" fill="black"/>
<path d="M32.9075 115.741H28.2778V120.37H32.9075V115.741Z" fill="black"/>
<path d="M37.5371 115.741H32.9075V120.37H37.5371V115.741Z" fill="black"/>
<path d="M46.7964 115.741H42.1667V120.37H46.7964V115.741Z" fill="black"/>
<path d="M51.426 115.741H46.7964V120.37H51.426V115.741Z" fill="black"/>
<path d="M83.8332 115.741H79.2036V120.37H83.8332V115.741Z" fill="black"/>
<path d="M93.0925 115.741H88.4629V120.37H93.0925V115.741Z" fill="black"/>
<path d="M106.981 115.741H102.352V120.37H106.981V115.741Z" fill="black"/>
<path d="M120.87 115.741H116.241V120.37H120.87V115.741Z" fill="black"/>
<script xmlns=""/></svg>