<svg xmlns="http://www.w3.org/2000/svg" id="_層_2" viewBox="0 0 141 34.59"><script xmlns=""/><defs><style>.cls-1{fill:#b47954;}</style></defs><g id="logo"><g><path class="cls-1" d="M6.12,13.44c.61-.2,4.93-2.77,5.21-2.19-2.02-4.29-4.84-1.31-7.22-.02-.62,.34-1.22,.5-1.84,.65-.17,.04-1.22,.75-1.17,.77,1.63,.75,3.38,1.33,5.03,.79Z"/><path class="cls-1" d="M6.92,24.57c0-.73,.02-1.47,.02-2.2l1.82-2.88c1.2-.61,2.38-1.13,2.52-.83-.95-2.03-2.07-2.42-3.24-2.15-.15-.33-.29-.66-.45-.97-.45-.86-1.23-1.79-2.04-1.42l-.27,3.81c-.39,.26-.78,.5-1.16,.71-.62,.34-1.21,.5-1.83,.65-.17,.04-1.21,.75-1.16,.77,1.27,.6,2.63,1.07,3.94,.98-.04,.83-.05,1.67,.02,2.5,.06,.65,.18,1.28,.33,1.91-.62,.39-1.22,.78-1.81,1.1-.74,.4-1.46,.63-2.22,.84-.2,.06-1.45,.88-1.39,.9,2.05,.58,4.24,.97,6.23,.25,.73-.27,5.88-3.29,6.25-2.74-1.74-2.55-3.67-2.21-5.57-1.22Z"/><path class="cls-1" d="M16.63,27.86c.14-3.49,.08-7.05-.27-10.58,.45,.27,2.29,.21,2.63,.19,.85-.05,1.69-.24,2.5-.51,.55-.19,1.08-.41,1.58-.7,.85-.18,1.62-.76,2.14-1.51,.08-.1,.16-.21,.21-.33,.09-.15,.17-.31,.24-.47,.63-1.53,1.42-4.85,1.41-6.57,0-2.36-1.71-3.02-3.77-2.99-.66,0-1.33,.1-2,.23-.06-.09-.12-.18-.19-.27-.97-1.23-2.22-2.24-3.62-2.93l.07,.82c.32,.78,.65,1.55,.97,2.33,.11,.25,.22,.51,.35,.75-2.01,.77-3.89,1.94-5.33,3.28,0,0,.52,.07,1.15,.16-.8,3.05-.45,6.91-.64,10.05-.21,3.48-.42,6.95-.63,10.43-.02,.26-.01,.54,.02,.82-.53,.65-.77,1.47-.33,2.38,1.18,2.41,6.67-3.34,7.46-4.61,.43-.69,.76-1.51,.57-2.3-1.54,.71-3.04,1.5-4.5,2.35Zm.84-11.9c-.46,.03-.97,.3-1.17,.67-.11-1.02-.24-2.05-.4-3.06,1.98-.21,4.77-1.54,6.16-2.01,.44-.15,.88-.31,1.29-.5-.24,.88-.68,1.75-1,2.61-1.51,1.19-2.94,2.19-4.88,2.3Zm-.48-6.94c1.25-.08,2.06-.5,3.15-.97,1.86-.79,3.18-1,3.35,1.31-1.93,.71-5.7,2.38-7.74,3.35-.23-1.33-.51-2.64-.84-3.94,.87,.12,1.88,.26,2.08,.25Z"/><path class="cls-1" d="M32.04,28.65c-2.82-2.28-5.7-4.49-8.62-6.63-1.25-.91-2.58-1.85-4.09-1.96,2.45,2.89,4.98,5.7,7.59,8.43,1.63,1.71,3.93,5.42,6.56,4.56,3.4-1.11,.05-3.19-1.44-4.39Z"/><path class="cls-1" d="M29.43,22.41c.17-.11,.34-.24,.5-.39,.95-.91,2.15-4.17,.64-4.59-1.18-.33-3.57,3.84-4.16,4.85,.73,.77,1.99,.8,3.02,.13Z"/><path class="cls-1" d="M42.23,13.44c.61-.2,4.93-2.77,5.21-2.19-2.02-4.29-4.84-1.31-7.22-.02-.62,.34-1.22,.5-1.84,.65-.17,.04-1.22,.75-1.17,.77,1.63,.75,3.38,1.33,5.03,.79Z"/><path class="cls-1" d="M43.04,24.57c0-.73,.02-1.47,.02-2.2l1.82-2.88c1.2-.61,2.38-1.13,2.52-.83-.95-2.03-2.07-2.42-3.24-2.15-.15-.33-.29-.66-.45-.97-.45-.86-1.23-1.79-2.04-1.42l-.27,3.81c-.39,.26-.78,.5-1.16,.71-.62,.34-1.21,.5-1.83,.65-.17,.04-1.21,.75-1.16,.77,1.27,.6,2.63,1.07,3.94,.98-.04,.83-.05,1.67,.02,2.5,.06,.65,.18,1.28,.33,1.91-.62,.39-1.22,.78-1.81,1.1-.74,.4-1.46,.63-2.22,.84-.2,.06-1.45,.88-1.39,.9,2.05,.58,4.24,.97,6.23,.25,.73-.27,5.88-3.29,6.25-2.74-1.74-2.55-3.67-2.21-5.57-1.22Z"/><path class="cls-1" d="M52.74,27.86c.14-3.49,.08-7.05-.27-10.58,.45,.27,2.29,.21,2.63,.19,.85-.05,1.69-.24,2.5-.51,.55-.19,1.08-.41,1.58-.7,.85-.18,1.62-.76,2.14-1.51,.08-.1,.16-.21,.21-.33,.09-.15,.17-.31,.24-.47,.63-1.53,1.42-4.85,1.41-6.57,0-2.36-1.71-3.02-3.77-2.99-.66,0-1.33,.1-2,.23-.06-.09-.12-.18-.19-.27-.97-1.23-2.22-2.24-3.62-2.93l.07,.82c.32,.78,.65,1.55,.97,2.33,.11,.25,.22,.51,.35,.75-2.01,.77-3.89,1.94-5.33,3.28,0,0,.52,.07,1.15,.16-.8,3.05-.45,6.91-.64,10.05-.21,3.48-.42,6.95-.63,10.43-.02,.26-.01,.54,.02,.82-.53,.65-.77,1.47-.33,2.38,1.18,2.41,6.67-3.34,7.46-4.61,.43-.69,.76-1.51,.57-2.3-1.54,.71-3.04,1.5-4.5,2.35Zm.84-11.9c-.46,.03-.97,.3-1.17,.67-.11-1.02-.24-2.05-.4-3.06,1.98-.21,4.77-1.54,6.16-2.01,.44-.15,.88-.31,1.29-.5-.24,.88-.68,1.75-1,2.61-1.51,1.19-2.94,2.19-4.88,2.3Zm-.48-6.94c1.25-.08,2.06-.5,3.15-.97,1.86-.79,3.18-1,3.35,1.31-1.93,.71-5.7,2.38-7.74,3.35-.23-1.33-.51-2.64-.84-3.94,.87,.12,1.88,.26,2.08,.25Z"/><path class="cls-1" d="M68.15,28.65c-2.82-2.28-5.7-4.49-8.62-6.63-1.25-.91-2.58-1.85-4.09-1.96,2.45,2.89,4.98,5.7,7.59,8.43,1.63,1.71,3.93,5.42,6.56,4.56,3.4-1.11,.05-3.19-1.44-4.39Z"/><path class="cls-1" d="M65.55,22.41c.17-.11,.34-.24,.5-.39,.95-.91,2.15-4.17,.64-4.59-1.18-.33-3.57,3.84-4.16,4.85,.73,.77,1.99,.8,3.02,.13Z"/><path class="cls-1" d="M111.26,5.46c.11,.38,.21,.75,.32,1.13,.08,.3,.17,.59,.27,.88,.16,.42,.37,.82,.58,1.21,.16,.29,.31,.58,.54,.82,.4,.41,.74,.37,1.25,.33,.43-.03,.87-.18,1.04-.62,.22-.55-.13-1.16-.5-1.63-.55-.69-1.19-1.32-1.89-1.86-.36-.28-.74-.53-1.14-.76-.11-.07-.41-.3-.55-.27-.19,.05-.01,.46,.02,.59l.05,.17Z"/><path class="cls-1" d="M119.53,10.47c-.18-.09-.36-.16-.55-.22-2.1-.63-4.67,.7-6.67,1.31-1.62,.49-3.59,.86-5.06,1.73,1.66,1.64,6.51-.14,8.56-.52,1.22-.23,2.8-.67,3.83-1.38,.14-.1,.29-.23,.31-.4,.02-.24-.21-.42-.43-.53Z"/><path class="cls-1" d="M79.8,15.29s-.04,.1-.07,.14c.05-.62,.08-1.24,.08-1.85,0-2.12-.08-4.49-.63-6.56-.04-.15-.09-.29-.14-.44-.27-.7-.73-1.33-1.39-1.7-.13-.07-.32-.12-.41,0-.04,.05-.04,.12-.04,.19,0,.98,.25,1.93,.29,2.89,.04,1.08-.15,2.22-.22,3.3-.14,2.25-.26,4.51-.32,6.77-.08,2.93-.06,5.87,.14,8.79,.19,2.7,.36,5.5,2.02,7.76-.35-.48,.24-2.92,.28-3.55,.09-1.26,.16-2.52,.22-3.78,.1-2.16-.03-4.17-.18-6.29-.07-1.03,0-2.09,.09-3.15,.05,.13,.08,.27,.15,.39,.09,.15,.19,.29,.31,.41,.71,.77,3.29,1.39,3.64-.12,.28-1.18-3.01-2.8-3.81-3.21Z"/><path class="cls-1" d="M75.25,17.84l-1.94,1.23c-.41,1.24-.57,2.57-.47,3.86,.52,.74,1.68,.59,2.32-.09s.86-1.69,.95-2.65c.08-.92-.06-2.07-.85-2.36Z"/><path class="cls-1" d="M84.91,13.98c.1-.04,.17-.13,.23-.22,1.31-1.79,2.35-3.74,3.69-5.52,.89-1.19,1.97-3.24-.6-2.4-1.42,.46-2.48,1.19-3.12,2.54-.12,.25-.23,.51-.34,.77-.51,1.24-.86,2.56-.71,3.91,.04,.32,.38,1.12,.85,.93Z"/><path class="cls-1" d="M99.58,10.95c.6,.36,1.23,.7,1.92,.81,4.01,.64-1.87-4.97-2.89-5.71-.58-.43-1.63-1.59-2.35-1.71-1.41-.24-1.92,1.06-1.29,2.14,1.08,1.87,2.75,3.35,4.6,4.48Z"/><path class="cls-1" d="M97.98,18.11c.45-1.37,.7-2.81,.72-4.25,0-.46-.04-.97-.39-1.26-.36-.3-.89-.2-1.27,.09-.01-.01-.01-.03-.03-.04-.12-.09-.28-.1-.42-.11-1.77-.1-3.38,.25-5.06,.72-.86,.24-1.07,.3-1.85,.22-.59-.06-.66-.83-1.45-.36-1.49,.89-.37,3.7,.12,4.89,.78,1.9,2.94,2.63,4.98,2.98,1.28,.22,2.72-.03,3.62-.97,.5-.53,.79-1.21,1.02-1.9Zm-1.85-1.66c-.36,.67-1.1,1.03-1.83,1.24-1.12,.33-2.18,.45-2.87,.04-.55-.32-.88-.98-.81-2.14,.14-2.4,3.69-1.79,5.44-1.89,.15,0,.3-.02,.44-.05-.08,.34-.09,.7-.09,1.05,0,.6,0,1.22-.27,1.75Z"/><path class="cls-1" d="M103.23,27.22c-.39,.62-1.68,1.94-2.4,1.87h-.13c-.6-.08-1.21-.15-1.78-.37-.61-.23-1.18-.65-1.47-1.27-.41-.84-.87-1.46-1.13-2.38-.23-.8-.39-1.67-.97-2.28-1.81-1.91-.15,4.43,.11,5.42,.48,1.83,1.03,3.68,2.9,4.29,.92,.3,1.89,.31,2.85,.3,2.18-.01,3.56-5.98,3.88-7.88,.07-.41,.1-.92-.15-1.17,.07,.07-1.52,3.19-1.7,3.48Z"/><path class="cls-1" d="M91.76,22.98c-.03-.08-.08-.17-.17-.21-1.48-.64-2.01,2.06-2.27,2.83-.28,.83-.74,1.59-1.28,2.28-1.12,1.44-2.59,2.61-3.99,3.8-.18,.15-.37,.35-.32,.57,.03,.12,.12,.21,.22,.28,.57,.46,1.36,.61,2.11,.61,.26,0,.52-.02,.76-.1,.29-.1,.54-.28,.77-.48,0-.12,.62-.6,.73-.72,.21-.26,.39-.54,.55-.83,.31-.58,.69-1.1,1.04-1.66,.58-.93,.63-1.93,1.05-2.88,.48-1.1,1.22-1.98,.89-3.19-.03-.1-.06-.21-.11-.32Z"/><path class="cls-1" d="M118.45,23.78c-.44-.15-1.41-.2-1.57-.2-.67,0-1.35,.09-2,.27-1.04,.29-2.01,.8-2.83,1.51-.45-.44-.99-.74-1.63-.74l-.4,2.79c.14,1.11,.3,2.25,.87,3.21,.48,.8,1.33,1.42,2.23,1.49,.87,.26,1.77,.45,2.67,.39,1.14-.08,2.3-.63,2.87-1.62,.43-.75,.47-1.66,.48-2.52,.01-1.19-.02-2.37-.09-3.56-.03-.43-.21-.98-.6-1.02Zm-2.41,5.26c-.37,1.14-1.39,1.85-2.51,2.39-.22-1.23-.11-2.53-.33-3.77-.03-.2-.09-.4-.15-.59,.03-.05,.06-.1,.09-.14,.5-.74,1.15-1.36,1.9-1.84,.26,.1,.49,.29,.65,.52,.27,.4,.36,.9,.42,1.37,.09,.69,.14,1.4-.07,2.07Z"/><path class="cls-1" d="M121.57,3.61c.28,.92,1.78,1.57,3.06,1.57,.85,0,1.66-.24,2.5-.32,.09,0,.18,0,.27-.01-.01,.6,0,1.19,.03,1.72-.69,.18-1.39,.31-2.09,.44-.45,.09-.91,.13-1.35,.25-.26,.07-.94,.26-.9,.61,.03,.28,.28,.21,.47,.27,.3,.09,.54,.3,.86,.35,1.19,.18,2.61,.37,3.82,.11,.17,.04,.38,0,.63-.15,1.78-.51,5.48-1.71,5.24-2.04-.62-.83-1.52-.9-2.42-.72-.62,.13-1.24,.21-1.87,.32,0-.41-.03-.85-.1-1.3,1.83-.24,4.19-.91,4.89-2.01,.52-.8,.04-.85-1.14-.86-1.39,0-2.89,.14-4.42,.37-.4-1.02-.9-1.85-1.4-2.22,.09,.06-.02,1.12-.12,2.46-2.08,.36-4.15,.82-5.96,1.14Z"/><path class="cls-1" d="M110.82,17.75c.96,.1,1.97,.2,2.94,.07,1.95-.26,3.59-.68,4.98-2.07,.03-.03,.06-.07,.07-.11,0-.07-.07-.12-.14-.15-.05-.02-.1-.04-.15-.06-.67-.25-1.41-.24-2.12-.17-1.23,.12-2.34,.47-3.52,.82-.81,.24-1.84,.31-2.49,.92-.12,.11-.2,.3-.14,.45,.08,.22,.35,.28,.58,.31Z"/><path class="cls-1" d="M112.11,21.93c.14,.06,.27,.13,.41,.19,.67,.25,1.68-.02,2.37-.08,.88-.07,1.8-.5,2.63-.8,.65-.23,1.57-.47,1.18-1.25l-.02-.03c-.31-.58-1.23-.59-1.78-.51l-.95,.13c-.82,.12-1.57,.36-2.36,.6-.39,.12-.83,.08-1.24,.18-.6,.14-1.23,.45-1.82,.65-1.18,.39,1.37,.84,1.58,.93Z"/><path class="cls-1" d="M122.7,15.52c-.01,.06-.02,.11,0,.17,.1,.31,.75,.46,1.63,.52,.1,.02,.19,.02,.29,.02,2.34,.08,6.07-.42,6.88-.59,1.15-.24,2.25-.64,3.12-1.18,.22-.02,.43-.04,.59-.12,.11-.06,.18-.16,.24-.26,.53-.85,.93-1.62,1.27-2.53,.27-.72,.32-1.51-.03-2.2-.09-.17-.2-.34-.37-.46-.44-.31-1.28-.24-1.75,.02-.06,.04-.1,.08-.15,.13-2.28,.07-4.58,.34-6.83,.71-.8,.13-1.59,.28-2.39,.4-.36,.06-.73,.11-1.09,.16-.34,.05-.76,.06-1.16,.13-.14-.16-.27-.34-.42-.49-.05-.05-.11-.1-.18-.12-.06-.02-.13,0-.19,.02-.86,.26-.87,1.01-.71,1.71,.22,.95,.35,1.91,.63,2.85,.12,.39,.25,.79,.55,1.09,.02,.02,.04,.03,.06,.04Zm5.84-1.41c.02-.15,0-.31-.03-.45-.11-.42-.26-1.72-.85-2.23,.99-.13,1.97-.33,2.94-.56-.11,.32-.13,.74-.21,1-.2,.67-.41,1.34-.51,2.02-.29,.05-.59,.1-.88,.15-.09,.02-.25,.04-.46,.06Zm5.49-4.18s-.02,.09-.03,.14c-.23,1.1-.52,2.19-.81,3.28-.43,.07-.87,.15-1.3,.22,.42-.76,.48-2.35-.34-2.92,.77-.21,1.52-.43,2.28-.67,.05-.01,.12-.03,.2-.05Zm-10.25,1.57c.71,.17,1.45,.16,2.17,.11,.12,0,.24-.02,.36-.03-.53,.62,.53,1.84,1.24,2.63-.66,.07-1.46,.16-2.22,.29-.04-.1-.08-.19-.12-.29-.42-.91-.9-1.85-1.47-2.72,.01,0,.02,0,.03,0Z"/><path class="cls-1" d="M132.83,28.84c2.03,.07,1.82-3.41,2.09-4.74,.29-1.39,.42-2.82,.49-4.24,.02-.51,.04-1.04-.12-1.53-.54-1.69-2.26-1.67-3.89-1.52-1.74,.16-3.61,.22-5.16,1.1-.15-.08-.35-.09-.62,0-.41,.14-.86,.45-.86,.9,0,.48,.04,.97,.01,1.45-.05,1.15-.12,2.29-.16,3.44-.03,.89-.02,1.78,.11,2.66,.07,.46,.17,.91,.31,1.35,.08,.26,.21,.95,.47,1.11,.06,.04,.15,.09,.24,.12,.03,.01,.06,.01,.09,.02,.45,.29,1.73,.1,2.21,.03,.06,0,.11-.02,.14-.02,1.38-.19,2.79-.11,4.2-.22,.14,.07,.3,.1,.47,.11Zm-5.94-4.88s0-.05,0-.08c-.11-.7-.14-1.43-.14-2.17,1.07,.09,2.44-.21,3.13-.3,.76-.1,1.53-.25,2.27-.49,.13-.04,.29-.12,.46-.21,.05,.91-.03,1.88-.15,2.69-1.89-.02-3.86,.05-5.56,.55Zm3.87-6.16h.06c1.03,.15,1.51,1.04,1.7,2.15-1.81-.01-3.62,.07-5.39,.48-.12,.03-.25,.06-.38,.09,0-.29,0-.57,0-.85,0-.3-.01-.71-.08-1.07,.42-.19,.83-.48,1.26-.58,.92-.22,1.91-.35,2.85-.23Zm-3.95,10.13c-.07,.02-.15,.05-.24,.08,0-.03,.01-.06,.02-.08,.17-.97,.35-1.93,.37-2.9,.9,.14,1.71,.21,2.63-.04,.89-.24,1.84-.43,2.71-.69-.04,.19-.07,.36-.11,.5-.18,.79-.39,1.51-.31,2.33h0c-.41,0-.76,.03-.92,.04-1.4,.08-2.8,.36-4.14,.76Z"/><path class="cls-1" d="M126.64,30.2c-.78-.22-1.34,.23-1.99,.6-.63,.36-2.73,1.54-2.56,2.51,.03,.18,.14,.31,.28,.41,.18,.13,.41,.21,.62,.27,.31,.09,.64,.18,.94,.06,.13-.05,.24-.14,.35-.22,1.07-.84,2.91-1.5,2.81-3.13,0-.08-.02-.16-.05-.24-.08-.14-.25-.21-.4-.25Z"/><path class="cls-1" d="M139.53,32.24c-1.36-.49-2.75-.9-4.14-1.31-.67-.2-1.31-.49-1.98-.71-.35-.11-.7-.21-1.06-.25-.19-.02-.79-.17-.89,.07-.09,.21,.41,.75,.52,.92,.42,.62,.89,1.23,1.52,1.65,.37,.25,.8,.39,1.18,.61,.42,.25,.96,.36,1.43,.47,.47,.11,.96,.19,1.44,.24,.48,.05,1.05,.13,1.53,.04,.37-.07,.75-.17,1.12-.27,.24-.06,.75-.18,.8-.49,.07-.47-1.15-.87-1.47-.99Z"/></g></g><script xmlns=""/></svg>