<svg xmlns="http://www.w3.org/2000/svg" id="_層_2" viewBox="0 0 57.36 43"><script xmlns=""/><defs><style>.cls-1{fill:#fff;}.cls-2{fill:#f46c00;}.cls-3{fill:#19191a;}</style></defs><g id="logo"><g><g><path class="cls-2" d="M25.14,43c.38,0,.76,0,1.15,0s.77,0,1.15,0c3.32-5.08,9.04-5.49,15.55-5.49h4.83c.01-3.2,.02-7.7,.02-13.19,0-10.58-.02-17.53-.09-18.43-.07-.9-.31-1.66-.86-2.2-.55-.55-1.34-.79-2.28-.86-.93-.07-7.77-.09-18.32-.09s-17.39,.02-18.32,.09c-.94,.07-1.73,.31-2.28,.86-.54,.54-.79,1.3-.86,2.2-.07,.9-.09,7.85-.09,18.43,0,5.49,0,9.99,.02,13.19h4.83c6.51,0,12.24,.41,15.55,5.49Z"/><path class="cls-2" d="M11.33,39.28H.87c-.48,0-.87,.38-.87,.85v2.02c0,.47,.39,.85,.87,.85H22.28c-2.48-2.38-6.05-3.72-10.95-3.72Z"/><path class="cls-2" d="M41.12,39.28h10.47c.48,0,.87,.38,.87,.85v2.02c0,.47-.39,.85-.87,.85H30.17c2.48-2.38,6.05-3.72,10.95-3.72Z"/><g><path class="cls-3" d="M51.39,9.66c-.14,.01-.26,.08-.34,.19-.08,.1-.11,.24-.09,.37,.04,.24,.26,.4,.5,.38,1.11-.09,2.13,.61,2.44,1.65,.06,.2,.24,.33,.46,.33,.03,0,.06,0,.08,0h0c.13-.02,.25-.1,.32-.22,.07-.11,.09-.25,.05-.38-.44-1.46-1.88-2.43-3.42-2.31Z"/><path class="cls-3" d="M57.34,10.22c-.56-2.15-2.68-3.57-4.92-3.33-.13,.01-.25,.08-.33,.19-.08,.1-.11,.24-.09,.37,.04,.24,.27,.41,.52,.38,1.77-.2,3.45,.94,3.9,2.63,.06,.21,.25,.35,.46,.35,.03,0,.06,0,.08,0h0c.13-.02,.25-.1,.32-.21,.07-.11,.09-.24,.06-.37Z"/><path class="cls-3" d="M50.54,12.43h0c-.14,0-.27,.06-.37,.17-.09,.11-.13,.25-.1,.39,.04,.22,.23,.38,.46,.38,.45,0,.84,.27,1,.68,.07,.18,.25,.29,.44,.29,.03,0,.06,0,.08,0h0c.14-.03,.26-.11,.33-.24,.07-.12,.08-.27,.02-.4-.31-.76-1.04-1.26-1.88-1.27Z"/></g><g><path class="cls-3" d="M6.67,19.63v-2.75c0-2,.52-3.95,1.54-5.77,.99-1.77,2.41-3.35,4.21-4.72,1.81-1.36,3.91-2.43,6.25-3.18,2.42-.77,5-1.16,7.65-1.16s5.23,.39,7.65,1.16c2.34,.75,4.44,1.82,6.25,3.18,1.81,1.36,3.22,2.95,4.21,4.72,1.02,1.83,1.54,3.77,1.54,5.77v2.75h2.7v-2.75C48.68,7.55,38.67,0,26.32,0h0C13.97,0,3.96,7.55,3.96,16.87v2.75h2.7Z"/><path class="cls-3" d="M13.43,6.77c.3,0,.58-.09,.79-.24h0c1.57-1.1,3.4-1.97,5.44-2.57,2.11-.62,4.35-.94,6.66-.94s4.55,.32,6.66,.94c2.04,.6,3.87,1.47,5.44,2.57h0c.22,.15,.5,.24,.79,.24h2.61c1,0,1.54-.9,.86-1.46C38.76,2.06,32.89,0,26.33,0h0c-6.56,0-12.43,2.06-16.36,5.31-.68,.56-.14,1.46,.86,1.46h2.61Z"/><path class="cls-3" d="M46.97,14.51h1.5c1.66,0,3,1.34,3,3v8.69c0,1.66-1.34,3-3,3h-1.5c-.59,0-1.08-.48-1.08-1.08V15.58c0-.59,.48-1.08,1.08-1.08Z"/><path class="cls-3" d="M2.25,14.51h1.5c1.66,0,3,1.34,3,3v8.69c0,1.66-1.34,3-3,3h-1.5c-.59,0-1.08-.48-1.08-1.08V15.58c0-.59,.48-1.08,1.08-1.08Z" transform="translate(7.92 43.7) rotate(180)"/></g></g><g><path class="cls-1" d="M34.05,12.37c-1.65-.08-3.88-.11-7.76-.11s-6.12,.03-7.76,.11-3.08,.57-4.14,1.53c-1.14,1.04-1.81,2.55-1.83,4.29-.03,1.74-.03,2.83-.03,5.64s0,3.93,.03,5.64c.03,1.72,.69,3.25,1.83,4.29,1.05,.96,2.5,1.44,4.14,1.53s3.88,.16,7.76,.16,6.11-.08,7.76-.16c1.64-.09,3.09-.57,4.14-1.53,1.14-1.04,1.8-2.57,1.83-4.29s.03-2.82,.03-5.64,0-3.9-.03-5.64-.69-3.25-1.83-4.29c-1.05-.96-2.49-1.45-4.14-1.53Z"/><path d="M31.82,17.16h-1.16v8.2h1.16c.98,0,1.3-.7,1.3-1.46v-5.27c0-.76-.33-1.46-1.3-1.46Z"/><path d="M23.73,29.38c.11,1.35,.8,2.51,2.57,2.51s2.46-1.16,2.57-2.51h-5.13Z"/><path d="M22.03,24.01c0,.73-.32,1.4-1.25,1.4s-1.25-.67-1.25-1.4v-6.86h2.5v6.86Z"/></g></g></g><script xmlns=""/></svg>