<svg xmlns="http://www.w3.org/2000/svg" width="21" height="21" viewBox="0 0 21 21" fill="none"><script xmlns=""/>
    <path d="M20.0547 19.6766L13.3915 13.0737C14.5126 11.7404 15.1915 10.0193 15.1915 8.13878C15.1968 3.92629 11.7968 0.5 7.62311 0.5C3.44942 0.5 0.0546875 3.92629 0.0546875 8.13878C0.0546875 12.3513 3.44942 15.7776 7.62311 15.7776C9.52311 15.7776 11.2547 15.0604 12.5863 13.8918L19.2494 20.5L20.0494 19.6766H20.0547ZM7.62311 14.6248C4.081 14.6248 1.19679 11.7138 1.19679 8.13878C1.19679 4.56374 4.081 1.65272 7.62311 1.65272C11.1652 1.65272 14.0494 4.56374 14.0494 8.13878C14.0494 11.7138 11.1652 14.6248 7.62311 14.6248Z" fill="#7E7E7E"/>
<script xmlns=""/></svg>