<svg width="24" height="24" viewBox="0 0 24 24" fill="none" xmlns="http://www.w3.org/2000/svg">
<path d="M9.89209 8.71803L9.89209 1.60446C9.89209 1.14227 9.5174 0.767578 9.05521 0.767578L1.94168 0.767578C1.47951 0.767578 1.10476 1.14227 1.10476 1.60446L1.10476 8.71803C1.10476 9.18023 1.47951 9.55492 1.94168 9.55492L9.05521 9.55492C9.5174 9.55492 9.89209 9.18023 9.89209 8.71803Z" stroke="#3F3D3E" stroke-width="1.5" stroke-linecap="round" stroke-linejoin="round"/>
<path d="M9.89209 21.7257L9.89209 14.612C9.89209 14.1498 9.5174 13.7751 9.05521 13.7751L1.94168 13.7751C1.47951 13.7751 1.10476 14.1498 1.10476 14.612L1.10476 21.7257C1.10476 22.1878 1.47951 22.5624 1.94168 22.5624L9.05521 22.5624C9.5174 22.5624 9.89209 22.1878 9.89209 21.7257Z" stroke="#3F3D3E" stroke-width="1.5" stroke-linecap="round" stroke-linejoin="round"/>
<path d="M22.8999 8.71803L22.8999 1.60446C22.8999 1.14227 22.5252 0.767578 22.063 0.767578L14.9494 0.767578C14.4872 0.767578 14.1126 1.14227 14.1126 1.60446L14.1126 8.71803C14.1126 9.18023 14.4872 9.55492 14.9494 9.55492L22.063 9.55492C22.5252 9.55492 22.8999 9.18023 22.8999 8.71803Z" stroke="#3F3D3E" stroke-width="1.5" stroke-linecap="round" stroke-linejoin="round"/>
<path d="M18.4291 22.8082C21.0328 22.8082 23.1434 20.6976 23.1434 18.0939C23.1434 15.4903 21.0328 13.3796 18.4291 13.3796C15.8255 13.3796 13.7148 15.4903 13.7148 18.0939C13.7148 20.6976 15.8255 22.8082 18.4291 22.8082Z" stroke="#3F3D3E" stroke-width="1.5" stroke-linecap="round" stroke-linejoin="round"/>
</svg>
