<svg width="26" height="25" viewBox="0 0 26 25" fill="none" xmlns="http://www.w3.org/2000/svg">
<path d="M10.7141 23.1346C10.2999 23.1346 9.96415 23.4704 9.96415 23.8846C9.96415 24.2988 10.2999 24.6346 10.7141 24.6346V23.1346ZM15.2856 24.6346C15.6998 24.6346 16.0356 24.2988 16.0356 23.8846C16.0356 23.4704 15.6998 23.1346 15.2856 23.1346V24.6346ZM7.78191 11.3498L8.52472 11.4534V11.4533L7.78191 11.3498ZM7.7666 11.4596L7.02378 11.356L7.02378 11.356L7.7666 11.4596ZM18.2178 11.3498L18.9606 11.2462V11.2462L18.2178 11.3498ZM18.2331 11.4596L17.4903 11.5632L17.4903 11.5632L18.2331 11.4596ZM16.0475 20.7627V21.5127C16.4617 21.5127 16.7975 21.1769 16.7975 20.7627H16.0475ZM9.95224 20.7627H9.20224C9.20224 21.1769 9.53803 21.5127 9.95224 21.5127V20.7627ZM8.81774 15.538L9.41614 15.0858L8.81774 15.538ZM17.182 15.5379L16.5836 15.0858L17.182 15.5379ZM13.7499 1.25049C13.7499 0.836275 13.4141 0.500488 12.9999 0.500488C12.5856 0.500488 12.2499 0.836275 12.2499 1.25049H13.7499ZM12.2499 4.37244C12.2499 4.78665 12.5856 5.12244 12.9999 5.12244C13.4141 5.12244 13.7499 4.78665 13.7499 4.37244H12.2499ZM1.57129 12.2078C1.15708 12.2078 0.821289 12.5436 0.821289 12.9578C0.821289 13.372 1.15708 13.7078 1.57129 13.7078V12.2078ZM4.61891 13.7078C5.03312 13.7078 5.36891 13.372 5.36891 12.9578C5.36891 12.5436 5.03312 12.2078 4.61891 12.2078V13.7078ZM21.3808 12.2078C20.9666 12.2078 20.6308 12.5436 20.6308 12.9578C20.6308 13.372 20.9666 13.7078 21.3808 13.7078V12.2078ZM24.4284 13.7078C24.8426 13.7078 25.1784 13.372 25.1784 12.9578C25.1784 12.5436 24.8426 12.2078 24.4284 12.2078V13.7078ZM5.60604 8.01829C5.89538 8.31469 6.37022 8.32042 6.66662 8.03107C6.96302 7.74173 6.96874 7.26689 6.6794 6.97049L5.60604 8.01829ZM4.39368 4.62902C4.10434 4.33262 3.6295 4.3269 3.3331 4.61625C3.0367 4.90559 3.03098 5.38043 3.32032 5.67683L4.39368 4.62902ZM19.3203 6.97049C19.031 7.26689 19.0367 7.74173 19.3331 8.03107C19.6295 8.32042 20.1043 8.31469 20.3937 8.01829L19.3203 6.97049ZM22.6794 5.67683C22.9687 5.38043 22.963 4.90559 22.6666 4.61625C22.3702 4.3269 21.8954 4.33262 21.606 4.62902L22.6794 5.67683ZM10.7141 24.6346H15.2856V23.1346H10.7141V24.6346ZM7.0391 11.2462L7.02378 11.356L8.50941 11.5632L8.52472 11.4534L7.0391 11.2462ZM12.9998 5.9639C9.98904 5.9639 7.45985 8.2291 7.0391 11.2462L8.52472 11.4533C8.84589 9.15034 10.7645 7.4639 12.9998 7.4639V5.9639ZM18.9606 11.2462C18.5398 8.22911 16.0106 5.9639 12.9998 5.9639V7.4639C15.2352 7.4639 17.1538 9.15034 17.475 11.4534L18.9606 11.2462ZM18.9759 11.356L18.9606 11.2462L17.475 11.4534L17.4903 11.5632L18.9759 11.356ZM17.7804 15.9901C18.7351 14.7264 19.2165 13.0813 18.9759 11.356L17.4903 11.5632C17.6739 12.8802 17.3072 14.128 16.5836 15.0858L17.7804 15.9901ZM15.2975 18.2672V20.7627H16.7975V18.2672H15.2975ZM16.0475 20.0127H9.95224V21.5127H16.0475V20.0127ZM10.7022 20.7627V18.2672H9.20224V20.7627H10.7022ZM7.02378 11.356C6.78317 13.0813 7.26457 14.7264 8.21935 15.9901L9.41614 15.0858C8.69247 14.1281 8.32574 12.8802 8.50941 11.5632L7.02378 11.356ZM10.7022 18.2672C10.7022 16.9978 10.043 15.9155 9.41614 15.0858L8.21935 15.9901C8.80322 16.7629 9.20224 17.5102 9.20224 18.2672H10.7022ZM16.5836 15.0858C15.9567 15.9155 15.2975 16.9978 15.2975 18.2672H16.7975C16.7975 17.5102 17.1965 16.7628 17.7804 15.9901L16.5836 15.0858ZM12.2499 1.25049V4.37244H13.7499V1.25049H12.2499ZM1.57129 13.7078H4.61891V12.2078H1.57129V13.7078ZM21.3808 13.7078H24.4284V12.2078H21.3808V13.7078ZM6.6794 6.97049L4.39368 4.62902L3.32032 5.67683L5.60604 8.01829L6.6794 6.97049ZM20.3937 8.01829L22.6794 5.67683L21.606 4.62902L19.3203 6.97049L20.3937 8.01829Z" fill="#3F3D3E"/>
</svg>
