<svg width="24" height="25" viewBox="0 0 24 25" fill="none" xmlns="http://www.w3.org/2000/svg">
<path d="M23.3141 23.808H17.8283L17.6675 11.6924C17.6675 11.465 17.7578 11.247 17.9185 11.0863C18.0793 10.9255 18.2973 10.8352 18.5246 10.8352H22.2961C22.5234 10.8352 22.7415 10.9255 22.9023 11.0863C23.0629 11.247 23.1533 11.465 23.1533 11.6924L23.3141 23.808Z" stroke="#3F3D3E" stroke-width="1.5" stroke-linecap="round" stroke-linejoin="round"/>
<path d="M14.7426 23.8078H9.25684L9.35429 2.33175C9.35429 2.10442 9.44459 1.8864 9.60534 1.72567C9.76607 1.56492 9.9841 1.47461 10.2114 1.47461H13.9829C14.2102 1.47461 14.4282 1.56492 14.5889 1.72567C14.7497 1.8864 14.84 2.10442 14.84 2.33175L14.7426 23.8078Z" stroke="#3F3D3E" stroke-width="1.5" stroke-linecap="round" stroke-linejoin="round"/>
<path d="M6.17126 23.8081H0.685547L0.846278 7.7319C0.846278 7.50457 0.936585 7.28654 1.09733 7.12581C1.25808 6.96506 1.47609 6.87476 1.70342 6.87476H5.47485C5.70218 6.87476 5.9202 6.96506 6.08094 7.12581C6.24168 7.28654 6.33199 7.50457 6.33199 7.7319L6.17126 23.8081Z" stroke="#3F3D3E" stroke-width="1.5" stroke-linecap="round" stroke-linejoin="round"/>
</svg>
