<svg width="24" height="25" viewBox="0 0 24 25" fill="none" xmlns="http://www.w3.org/2000/svg">
<mask id="path-1-inside-1_327_24986" fill="white">
<path d="M18.3771 4.14277C20.3743 5.82863 21.7787 8.26991 22.1383 11.1186C22.8868 17.0469 18.8279 22.4777 13.073 23.2478C10.3099 23.6176 7.65983 22.8431 5.56488 21.2854C7.72783 23.111 10.5878 24.0499 13.5795 23.6496C19.3344 22.8794 23.3933 17.4486 22.6448 11.5204C22.2557 8.43848 20.6434 5.83017 18.3771 4.14277Z"/>
</mask>
<path d="M18.3771 4.14277C20.3743 5.82863 21.7787 8.26991 22.1383 11.1186C22.8868 17.0469 18.8279 22.4777 13.073 23.2478C10.3099 23.6176 7.65983 22.8431 5.56488 21.2854C7.72783 23.111 10.5878 24.0499 13.5795 23.6496C19.3344 22.8794 23.3933 17.4486 22.6448 11.5204C22.2557 8.43848 20.6434 5.83017 18.3771 4.14277Z" fill="#222222"/>
<path d="M18.3771 4.14277L19.2766 2.93538L17.4068 5.29388L18.3771 4.14277ZM5.56488 21.2854L6.46354 20.0774L4.59455 22.4365L5.56488 21.2854ZM17.4068 5.29388C19.1265 6.74557 20.3401 8.85066 20.6516 11.3176L23.6251 10.9197C23.2172 7.68917 21.6221 4.91169 19.3475 2.99165L17.4068 5.29388ZM20.6516 11.3176C21.3014 16.4646 17.7789 21.1047 12.8852 21.7596L13.2609 24.736C19.8768 23.8506 24.4722 17.6293 23.6251 10.9197L20.6516 11.3176ZM12.8852 21.7596C10.5304 22.0748 8.26606 21.4177 6.46354 20.0774L4.66621 22.4933C7.05359 24.2685 10.0894 25.1605 13.2609 24.736L12.8852 21.7596ZM4.59455 22.4365C7.05844 24.5162 10.3335 25.5973 13.7674 25.1377L13.3916 22.1614C10.8422 22.5026 8.39723 21.7059 6.53521 20.1342L4.59455 22.4365ZM13.7674 25.1377C20.3833 24.2523 24.9787 18.031 24.1316 11.3214L21.1581 11.7193C21.8079 16.8663 18.2854 21.5064 13.3916 22.1614L13.7674 25.1377ZM24.1316 11.3214C23.6903 7.8264 21.8591 4.85825 19.2766 2.93538L17.4777 5.35015C19.4278 6.8021 20.8211 9.05055 21.1581 11.7193L24.1316 11.3214Z" fill="#3F3D3E" mask="url(#path-1-inside-1_327_24986)"/>
<path d="M11.1587 22.3444C16.6456 22.3444 21.111 17.7443 21.111 12.0921C21.111 6.51434 16.7654 1.96786 11.3802 1.84448C5.81648 1.96554 1.32845 6.58883 1.21094 12.3202C1.33071 17.8677 5.74417 22.3444 11.1587 22.3444Z" stroke="#222222" strokeWidth="1.3" stroke-miterlimit="10"/>
<path d="M6.11133 12.3273C6.11133 15.1905 8.59619 17.494 11.6177 17.494C14.6368 17.494 17.1241 15.193 17.1241 12.3273C17.1241 11.8751 16.766 11.4954 16.3091 11.4954C15.8523 11.4954 15.4942 11.8751 15.4942 12.3273C15.4942 14.237 13.7782 15.83 11.6177 15.83C9.45725 15.83 7.74125 14.237 7.74125 12.3273C7.74125 11.8751 7.38316 11.4954 6.92629 11.4954C6.46941 11.4954 6.11133 11.8751 6.11133 12.3273Z" fill="#222222" stroke="#222222" strokeWidth="0.5"/>
</svg>
