<svg width="24" height="25" viewBox="0 0 24 25" fill="none" xmlns="http://www.w3.org/2000/svg">
<path d="M13.7299 4.17493L15.4899 7.69493C15.7299 8.18493 16.3699 8.65493 16.9099 8.74493L20.0999 9.27493C22.1399 9.61493 22.6199 11.0949 21.1499 12.5549L18.6699 15.0349C18.2499 15.4549 18.0199 16.2649 18.1499 16.8449L18.8599 19.9149C19.4199 22.3449 18.1299 23.2849 15.9799 22.0149L12.9899 20.2449C12.4499 19.9249 11.5599 19.9249 11.0099 20.2449L8.01991 22.0149C5.87991 23.2849 4.57991 22.3349 5.13991 19.9149L5.84991 16.8449C5.97991 16.2649 5.74991 15.4549 5.32991 15.0349L2.84991 12.5549C1.38991 11.0949 1.85991 9.61493 3.89991 9.27493L7.08991 8.74493C7.61991 8.65493 8.25991 8.18493 8.49991 7.69493L10.2599 4.17493C11.2199 2.26493 12.7799 2.26493 13.7299 4.17493Z" stroke="#3F3D3E" strokeWidth="1.5" strokeLinecap="round" strokeLinejoin="round"/>
</svg>
