<svg width="24" height="25" viewBox="0 0 24 25" fill="none" xmlns="http://www.w3.org/2000/svg">
<g clip-path="url(#clip0_327_29845)">
<path d="M13.7141 1.52222H2.57122C1.62445 1.52222 0.856934 2.28973 0.856934 3.2365V22.0936C0.856934 23.0404 1.62445 23.8079 2.57122 23.8079H17.9998C18.9466 23.8079 19.7141 23.0404 19.7141 22.0936V14.3794" stroke="#3F3D3E" strokeWidth="1.5" strokeLinecap="round" strokeLinejoin="round"/>
<path d="M0.856934 18.665H19.7141" stroke="#3F3D3E" strokeWidth="1.5" strokeLinecap="round" strokeLinejoin="round"/>
<path d="M6 5.80786H9.42857" stroke="#3F3D3E" strokeWidth="1.5" strokeLinecap="round" strokeLinejoin="round"/>
<path d="M6 10.0938H7.71429" stroke="#3F3D3E" strokeWidth="1.5" strokeLinecap="round" strokeLinejoin="round"/>
<path d="M15.4182 13.5322L10.2754 14.4579L11.1325 9.24645L18.3839 2.0293C18.5433 1.86862 18.7329 1.74109 18.9419 1.65406C19.1507 1.56702 19.3748 1.52222 19.601 1.52222C19.8275 1.52222 20.0516 1.56702 20.2604 1.65406C20.4693 1.74109 20.6589 1.86862 20.8182 2.0293L22.6353 3.84645C22.7961 4.00581 22.9237 4.19541 23.0106 4.40431C23.0977 4.61321 23.1424 4.83729 23.1424 5.06359C23.1424 5.28989 23.0977 5.51397 23.0106 5.72285C22.9237 5.93175 22.7961 6.12137 22.6353 6.28073L15.4182 13.5322Z" stroke="#3F3D3E" strokeWidth="1.5" strokeLinecap="round" strokeLinejoin="round"/>
</g>
<defs>
<clipPath id="clip0_327_29845">
<rect width="24" height="24" fill="white" transform="translate(0 0.665039)"/>
</clipPath>
</defs>
</svg>
